<svg xmlns="http://www.w3.org/2000/svg" viewBox="0 0 722.59 311.09"><defs><style>.a{fill:none;}.b{fill:#e51e27;}.c{fill:#f2d272;}</style></defs><title>403</title><path class="a" d="M472.29,82.85c-47.06,0-72.62,32.72-72.62,108v33.17c0,74.86,25.11,110.72,72.17,110.72,46.17,0,71.28-31.38,71.28-108.48V193.12C543.12,117.36,518.46,82.85,472.29,82.85Z" transform="translate(-94.41 -53.26)"/><polygon class="a" points="142.1 211.54 142.1 56.89 38.1 211.54 142.1 211.54"/><path class="b" d="M199.1,285.11v.54c0,3.71,1.6,4.88,4,4.88a5,5,0,0,0,3.25-1.12v-8.33a5.59,5.59,0,0,0-3.2-.85C200.62,280.23,199.1,281.54,199.1,285.11Z" transform="translate(-94.41 -53.26)"/><path class="b" d="M184.55,285.11v.54c0,3.71,1.6,4.88,4,4.88a5,5,0,0,0,3.25-1.12v-8.33a5.59,5.59,0,0,0-3.2-.85C186.07,280.23,184.55,281.54,184.55,285.11Z" transform="translate(-94.41 -53.26)"/><path class="b" d="M167.92,280.23a8,8,0,0,0-3.28.85v9a7.21,7.21,0,0,0,2.88.48c2.37,0,4.35-1.12,4.35-4.91v-.54C171.87,281.43,170.59,280.23,167.92,280.23Z" transform="translate(-94.41 -53.26)"/><path class="b" d="M144.24,280.18c-2.4,0-3.9,1.7-3.9,4.8v.67c0,3.68,1.74,4.88,3.95,4.88,2.41,0,3.9-1.68,3.9-4.8v-.67C148.19,281.38,146.4,280.18,144.24,280.18Z" transform="translate(-94.41 -53.26)"/><path class="b" d="M217.17,280.15c-1.65,0-3.41,1-3.63,4.08h6.89C220.43,281.35,219.33,280.15,217.17,280.15Z" transform="translate(-94.41 -53.26)"/><path class="b" d="M269.23,54.16H241.44L94.41,267v26.67h142.1v69.77h32.72V293.69h50.21V264.8H269.23ZM125.9,290.35h-2.29v-2.43h2.29Zm0-9.83h-2.29v-2.4h2.29Zm11.72-5.95a8.65,8.65,0,0,0-1.87-.19c-1.57,0-2.45.75-2.45,2.59v1.79h3v1.68h-3V292h-2.06V280.44h-2v-1.68h2v-1.92c0-2.91,1.74-4.17,4.14-4.17a5,5,0,0,1,2.24.46Zm12.65,10.92c0,4.21-2.45,6.72-6,6.72-3.74,0-6-2.4-6-6.62v-.4c0-4.19,2.43-6.7,6-6.7,3.74,0,6,2.43,6,6.62Zm9.64-5a6,6,0,0,0-4.51,1.06V292h-2.06V278.73h1.95v1.5h.14a5.18,5.18,0,0,1,3.68-1.63,7,7,0,0,1,.8,0Zm14.1,4.83c0,4.43-2.33,6.94-6.6,6.94a16,16,0,0,1-4.83-.72V272.86h2.06v6.76h.13a7.44,7.44,0,0,1,4.08-1.13c2.54,0,5.16,1.53,5.16,6.49Zm5.23,6.64h-2V278.76h2Zm0-15.88h-2.08V274h2.08ZM193.84,292h-1.71l-.24-1.09h-.11a5.44,5.44,0,0,1-3.87,1.33c-2.64,0-5.49-1.6-5.49-6.48v-.35c0-4.8,2.48-6.89,5.89-6.89a6.61,6.61,0,0,1,3.47.89v-6.52h2.06Zm14.55,0h-1.71l-.24-1.09h-.11a5.44,5.44,0,0,1-3.87,1.33c-2.64,0-5.5-1.6-5.5-6.48v-.35c0-4.8,2.49-6.89,5.9-6.89a6.61,6.61,0,0,1,3.47.89v-6.52h2.06Zm14.17-6.11h-9c.11,3.31,1.68,4.59,4.51,4.59a8.91,8.91,0,0,0,4.14-1V291a7.88,7.88,0,0,1-4.46,1.22c-4.16,0-6.27-2.53-6.27-6.67v-.37c0-4.62,2.72-6.68,5.77-6.68,3.63,0,5.33,2.11,5.33,6.22ZM236.1,292h-2v-9.45c0-1.6-.56-2.26-2.67-2.26a9.45,9.45,0,0,0-3.74,1V292h-2V278.73h2v1.15h.11a8.78,8.78,0,0,1,4.56-1.39c2.59,0,3.85,1.05,3.85,3.61Zm.41-27.17h-104l104-154.65Z" transform="translate(-94.41 -53.26)"/><path class="b" d="M472.29,53.26c-59.17,0-110.72,35.86-110.72,142.1v25.1c0,101.76,48.41,143.89,110.27,143.89,61,0,107.59-41.68,107.59-143.44V193.57C579.43,89.12,531,53.26,472.29,53.26Zm70.83,173c0,77.1-25.11,108.48-71.28,108.48-47.06,0-72.17-35.86-72.17-110.72V190.88c0-75.31,25.56-108,72.62-108,46.17,0,70.83,34.51,70.83,110.27Z" transform="translate(-94.41 -53.26)"/><path class="b" d="M748.42,198.05c34.07-11.21,57.38-33.17,57.38-70.38,0-47.06-36.76-74.41-90.55-74.41-26,0-61.41,11.21-79.34,23.31l5.38,28.69c18.82-10.76,42.13-21.52,66.79-21.52,36.75,0,60.51,13,60.51,49.76,0,33.62-26.45,53.34-65.44,53.34h-26.9v30.49h29.14c45.72,0,75.3,18.37,75.3,56.92,0,37.21-27.79,59.17-77.54,59.17-22.42,0-52.45-8.51-69.48-19.72l-7.62,28.24c16.58,11.66,46.61,21.52,81.58,21.52,66.79,0,109.37-36.76,109.37-89.21C817,227.64,787.42,205.67,748.42,198.05Z" transform="translate(-94.41 -53.26)"/><rect class="c" x="29.2" y="234.65" width="2.3" height="2.43"/><rect class="c" x="29.2" y="224.86" width="2.3" height="2.4"/><path class="c" d="M131.24,276.84v1.92h-2v1.68h2V292h2.06V280.44h3v-1.68h-3V277c0-1.84.88-2.59,2.45-2.59a8.65,8.65,0,0,1,1.87.19v-1.44a5,5,0,0,0-2.24-.46C133,272.67,131.24,273.93,131.24,276.84Z" transform="translate(-94.41 -53.26)"/><path class="c" d="M144.27,278.49c-3.58,0-6,2.51-6,6.7v.4c0,4.22,2.24,6.62,6,6.62,3.58,0,6-2.51,6-6.72v-.38C150.27,280.92,148,278.49,144.27,278.49Zm3.92,7.24c0,3.12-1.49,4.8-3.9,4.8-2.21,0-3.95-1.2-3.95-4.88V285c0-3.1,1.5-4.8,3.9-4.8,2.16,0,3.95,1.2,3.95,4.88Z" transform="translate(-94.41 -53.26)"/><path class="c" d="M155.43,280.23h-.14v-1.5h-1.95V292h2.06V281.56a6,6,0,0,1,4.51-1.06v-1.85a7,7,0,0,0-.8,0A5.18,5.18,0,0,0,155.43,280.23Z" transform="translate(-94.41 -53.26)"/><path class="c" d="M168.85,278.49a7.44,7.44,0,0,0-4.08,1.13h-.13v-6.76h-2.06v18.69a16,16,0,0,0,4.83.72c4.27,0,6.6-2.51,6.6-6.94V285C174,280,171.39,278.49,168.85,278.49Zm3,7.16c0,3.79-2,4.91-4.35,4.91a7.21,7.21,0,0,1-2.88-.48v-9a8,8,0,0,1,3.28-.85c2.67,0,4,1.2,4,4.88Z" transform="translate(-94.41 -53.26)"/><rect class="c" x="82.8" y="225.5" width="2.03" height="13.21"/><rect class="c" x="82.77" y="220.69" width="2.08" height="2.14"/><path class="c" d="M191.78,279.38a6.61,6.61,0,0,0-3.47-.89c-3.41,0-5.89,2.09-5.89,6.89v.35c0,4.88,2.85,6.48,5.49,6.48a5.44,5.44,0,0,0,3.87-1.33h.11l.24,1.09h1.71V272.86h-2.06Zm0,10a5,5,0,0,1-3.25,1.12c-2.38,0-4-1.17-4-4.88v-.54c0-3.57,1.52-4.88,4-4.88a5.59,5.59,0,0,1,3.2.85Z" transform="translate(-94.41 -53.26)"/><path class="c" d="M206.33,279.38a6.61,6.61,0,0,0-3.47-.89c-3.41,0-5.9,2.09-5.9,6.89v.35c0,4.88,2.86,6.48,5.5,6.48a5.44,5.44,0,0,0,3.87-1.33h.11l.24,1.09h1.71V272.86h-2.06Zm0,10a5,5,0,0,1-3.25,1.12c-2.38,0-4-1.17-4-4.88v-.54c0-3.57,1.52-4.88,4-4.88a5.59,5.59,0,0,1,3.2.85Z" transform="translate(-94.41 -53.26)"/><path class="c" d="M217.23,278.49c-3,0-5.77,2.06-5.77,6.68v.37c0,4.14,2.11,6.67,6.27,6.67a7.88,7.88,0,0,0,4.46-1.22v-1.53a8.91,8.91,0,0,1-4.14,1c-2.83,0-4.4-1.28-4.51-4.59h9v-1.15C222.56,280.6,220.86,278.49,217.23,278.49Zm-3.69,5.74c.22-3.12,2-4.08,3.63-4.08,2.16,0,3.26,1.2,3.26,4.08Z" transform="translate(-94.41 -53.26)"/><path class="c" d="M232.25,278.49a8.78,8.78,0,0,0-4.56,1.39h-.11v-1.15h-2V292h2V281.22a9.45,9.45,0,0,1,3.74-1c2.11,0,2.67.66,2.67,2.26V292h2V282.1C236.1,279.54,234.84,278.49,232.25,278.49Z" transform="translate(-94.41 -53.26)"/></svg>